<?xml version="1.0" encoding="utf-8"?>
<!-- Generator: Adobe Illustrator 19.2.1, SVG Export Plug-In . SVG Version: 6.00 Build 0)  -->
<svg version="1.1" id="Layer_1" xmlns="http://www.w3.org/2000/svg" xmlns:xlink="http://www.w3.org/1999/xlink" x="0px" y="0px"
	 viewBox="0 0 25 25" style="enable-background:new 0 0 25 25;" xml:space="preserve">
<style type="text/css">
	.st0{fill:#FFFFFF;}
</style>
<path class="st0" d="M13.1,25C9.4,25,5.7,25,2,25c-0.1,0-0.1,0-0.2,0c-0.9-0.1-1.6-0.8-1.8-1.7c0-0.1,0-0.2,0-0.3C0,16,0,9,0,2
	c0-0.1,0-0.1,0-0.2C0.1,0.9,0.9,0.2,1.7,0C1.8,0,1.9,0,2,0c7,0,14,0,21,0c0,0,0.1,0,0.1,0c0.1,0,0.2,0,0.3,0.1
	c0.9,0.2,1.4,0.8,1.6,1.7c0,0.1,0,0.2,0,0.3c0,7,0,14,0,21c0,0,0,0.1,0,0.1c0,0.2,0,0.3-0.1,0.5c-0.3,0.8-0.8,1.3-1.6,1.4
	c-0.1,0-0.2,0-0.3,0c-2,0-3.9,0-5.9,0c0,0,0-0.1,0-0.1c0-3.2,0-6.5,0-9.7c0-0.1,0-0.1,0.1-0.1c1.3,0,2.5,0,3.8,0
	c0.1,0,0.1,0,0.1-0.1c0-1.1,0-2.3,0-3.4c0-0.1,0-0.1-0.1-0.1c-1.3,0-2.5,0-3.8,0c0,0-0.1,0-0.1,0c0,0,0-0.1,0-0.1
	c0-0.6,0-1.2,0.1-1.8c0-0.2,0-0.5,0.1-0.7c0.2-0.6,0.6-1.1,1.2-1.3c0.5-0.2,1.1-0.2,1.6-0.2c0.3,0,0.6,0,0.9,0c0.1,0,0.1,0,0.1-0.1
	c0-0.7,0-1.4,0-2.1c0-0.4,0-0.9,0-1.3c0-0.1,0-0.1-0.1-0.1c-0.3,0-0.7,0-1,0c-0.9,0-1.9,0-2.8,0.2c-0.5,0.1-0.9,0.2-1.4,0.5
	c-0.5,0.2-0.9,0.5-1.2,0.9c-0.5,0.6-0.9,1.4-1.1,2.1c-0.1,0.4-0.2,0.9-0.3,1.3c0,0.4-0.1,0.8-0.1,1.2c0,0.5,0,0.9,0,1.4
	c0,0,0,0.1,0,0.1c0,0-0.1,0-0.1,0c-0.8,0-1.7,0-2.5,0c-0.1,0-0.1,0-0.1,0.1c0,1.1,0,2.3,0,3.4c0,0,0,0.1,0,0.1c0,0,0.1,0,0.1,0
	c0.8,0,1.6,0,2.4,0c0,0,0,0,0.1,0c0,0,0,0,0.1,0.1c0,0,0,0,0,0.1c0,3.2,0,6.5,0,9.7C13.1,24.9,13.1,25,13.1,25z"/>
</svg>
