<?xml version="1.0" encoding="utf-8"?>
<!-- Generator: Adobe Illustrator 19.2.1, SVG Export Plug-In . SVG Version: 6.00 Build 0)  -->
<svg version="1.1" id="Layer_1" xmlns="http://www.w3.org/2000/svg" xmlns:xlink="http://www.w3.org/1999/xlink" x="0px" y="0px"
	 viewBox="0 0 25 25" style="enable-background:new 0 0 25 25;" xml:space="preserve">
<style type="text/css">
	.st0{fill:#FFFFFF;}
</style>
<g id="buJ9CU_1_">
	<g>
		<path class="st0" d="M24.6,25c-1.8,0-3.6,0-5.4,0c0-0.2,0-0.3,0-0.4c0-3.7,0-7.4,0-11c0-0.3,0-0.7-0.1-1c-0.1-1-0.7-1.4-1.6-1.5
			C15.8,11,14.6,11.6,14,13c-0.1,0.2-0.1,0.4-0.1,0.7c0,3.7,0,7.3,0,10.9c0,0.1,0,0.2,0,0.4c-1.8,0-3.5,0-5.3,0c0-6.3,0-12.5,0-18.8
			c1.8,0,3.5,0,5.3,0c0,0.6,0,1.1,0,1.7c0.4-0.2,0.8-0.5,1.1-0.7c1.7-0.9,3.5-1.3,5.3-0.9c1.6,0.3,2.7,1.4,3.4,2.8
			c0.5,1.1,0.7,2.2,0.8,3.4c0.1,1,0.1,1.9,0.1,2.9c0,3.1,0,6.1,0,9.2C24.6,24.8,24.6,24.9,24.6,25z"/>
		<path class="st0" d="M0.4,6.2c1.8,0,3.5,0,5.3,0c0,6.3,0,12.5,0,18.8c-1.8,0-3.5,0-5.3,0C0.4,18.8,0.4,12.5,0.4,6.2z"/>
		<path class="st0" d="M3.2,0c1.4,0,2.5,1.1,2.5,2.5S4.5,5.1,3.1,5C1.8,5,0.7,3.9,0.7,2.5C0.7,1.1,1.8,0,3.2,0z"/>
	</g>
</g>
</svg>
