<?xml version="1.0" encoding="utf-8"?>
<!-- Generator: Adobe Illustrator 19.2.1, SVG Export Plug-In . SVG Version: 6.00 Build 0)  -->
<svg version="1.1" id="Layer_1" xmlns="http://www.w3.org/2000/svg" xmlns:xlink="http://www.w3.org/1999/xlink" x="0px" y="0px"
	 viewBox="0 0 30.3 25" style="enable-background:new 0 0 30.3 25;" xml:space="preserve">
<style type="text/css">
	.st0{fill:#FFFFFF;}
</style>
<g id="eoxiAB.tif">
	<g>
		<path class="st0" d="M0,22.3c3.1,0,6.1-0.5,8.7-2.4c-2.4-0.8-4.6-1.8-5.5-4.6c0.8,0,1.5,0,2.2,0c0-0.1,0.1-0.1,0.1-0.2
			C2.7,13.9,1.1,12,0.9,8.9c0.8,0.2,1.6,0.5,2.3,0.7c0.1-0.1,0.1-0.1,0.2-0.1C0.9,6.9,0.4,4.2,1.8,1c3.5,3.9,7.7,6.3,12.9,6.7
			c0-0.8-0.1-1.6,0-2.3c0.5-4.4,5.5-6.8,9.3-4.6c0.1,0.1,0.2,0.1,0.3,0.1c1.1,1.1,2.2,0.9,3.4,0.3c0.6-0.3,1.2-0.5,1.7-0.7
			c0.1,0.1,0.1,0.1,0.2,0.1c-0.7,1-1.4,2-2,3c0,0.1,0.1,0.1,0.1,0.2c0.9-0.3,1.7-0.5,2.6-0.7c0,0.1,0.1,0.1,0.1,0.1
			C30.1,3.5,30,3.8,29.7,4c-0.5,0.6-1.2,1.1-1.7,1.8c-0.3,0.5-0.6,1.1-0.7,1.6C26.8,15.9,21,23.6,12.5,25c-4.3,0.7-8.3,0-12.1-2.1
			c-0.1-0.1-0.3-0.1-0.3-0.2C0,22.5,0,22.4,0,22.3z"/>
	</g>
</g>
</svg>
